<svg xmlns="http://www.w3.org/2000/svg" xmlns:xlink="http://www.w3.org/1999/xlink" width="160" height="160" viewBox="0 0 160 160">
  <defs>
    <clipPath id="clip-path">
      <path id="Clip_2" data-name="Clip 2" d="M0,0H14.746V17.2H0Z" fill="none"/>
    </clipPath>
    <clipPath id="clip-path-3">
      <path id="Clip_22" data-name="Clip 22" d="M0,0H31.516V4.946H0Z" fill="none"/>
    </clipPath>
    <clipPath id="clip-path-4">
      <path id="Clip_25" data-name="Clip 25" d="M0,0H25.245V1.063H0Z" fill="none"/>
    </clipPath>
    <clipPath id="clip-path-5">
      <path id="Clip_28" data-name="Clip 28" d="M0,55.038H49.123V0H0Z" fill="none"/>
    </clipPath>
  </defs>
  <g id="logo" transform="translate(-0.083 -0.083)">
    <g id="bg" transform="translate(0 0)">
      <circle id="bg-2" data-name="bg" cx="80" cy="80" r="80" transform="translate(0.083 0.083)" fill="#f5f7fb"/>
      <circle id="bg-3" data-name="bg" cx="80" cy="80" r="80" transform="translate(0.083 0.083)" fill="none"/>
    </g>
    <g id="illustration" transform="translate(55.111 40.533)">
      <g id="Group_3" data-name="Group 3" transform="translate(34.376 7.538)">
        <path id="Clip_2-2" data-name="Clip 2" d="M0,0H14.746V17.2H0Z" transform="translate(0 0)" fill="none"/>
        <g id="Group_3-2" data-name="Group 3" transform="translate(0 0)" clip-path="url(#clip-path)">
          <path id="Fill_1" data-name="Fill 1" d="M.981,17.2c4.161,0,7.471-1.279,9.84-3.8C15.3,8.636,14.737,1.2,14.711.885A.974.974,0,0,0,13.733,0H2.523a.972.972,0,0,0-.981.963.972.972,0,0,0,.981.963H12.78c-.005,2-.35,6.926-3.408,10.175-1.982,2.106-4.8,3.173-8.391,3.173a.963.963,0,1,0,0,1.927" fill="#fcba27"/>
        </g>
      </g>
      <path id="Fill_4" data-name="Fill 4" d="M1.682.046A.972.972,0,0,0,.7,1.009a.965.965,0,0,0,.682.917h-.4A.972.972,0,0,1,0,.963.972.972,0,0,1,.981,0H12.192a1,1,0,0,1,.3.046Z" transform="translate(35.918 7.538)" fill="#fcba27"/>
      <path id="Fill_6" data-name="Fill 6" d="M.981,13.3c3.586,0,6.409-1.068,8.391-3.173C12.407,6.9,12.769,2.024,12.779,0h.7c-.005,2-.35,6.926-3.408,10.175-1.981,2.106-4.8,3.173-8.391,3.173a.961.961,0,0,0-.319,1.873c-.127,0-.253.007-.381.007a.963.963,0,1,1,0-1.927" transform="translate(34.376 9.511)" fill="#fcba27"/>
      <path id="Fill_8" data-name="Fill 8" d="M0,.688A.979.979,0,0,1,.94,0H12.151C12.592,0,0,.688,0,.688" transform="translate(35.959 7.538)" fill="#fcba27"/>
      <g id="Group_12" data-name="Group 12" transform="translate(0 7.538)">
        <path id="Clip_11-2" data-name="Clip 11" d="M0,0H14.746V17.2H0Z" transform="translate(0 0)" fill="none"/>
        <g id="Group_12-2" data-name="Group 12" transform="translate(0 0)" clip-path="url(#clip-path)">
          <path id="Fill_10" data-name="Fill 10" d="M13.765,17.2c-4.161,0-7.471-1.279-9.84-3.8C-.549,8.636.009,1.2.035.885A.974.974,0,0,1,1.013,0H12.224A.972.972,0,0,1,13.2.963a.972.972,0,0,1-.981.963H1.967c.005,2,.35,6.926,3.408,10.175,1.982,2.106,4.8,3.173,8.391,3.173a.963.963,0,1,1,0,1.927" transform="translate(0)" fill="#fcba27"/>
        </g>
      </g>
      <path id="Fill_13" data-name="Fill 13" d="M10.807.046a.972.972,0,0,1,.981.963.965.965,0,0,1-.682.917h.4a.972.972,0,0,0,.981-.963A.972.972,0,0,0,11.508,0H.3A1,1,0,0,0,0,.046Z" transform="translate(0.716 7.538)" fill="#fcba27"/>
      <path id="Fill_15" data-name="Fill 15" d="M12.5,13.3c-3.586,0-6.409-1.068-8.391-3.173C1.073,6.9.711,2.024.7,0H0C.005,2,.35,6.926,3.408,10.175c1.981,2.106,4.8,3.173,8.391,3.173a.961.961,0,0,1,.319,1.873c.127,0,.253.007.381.007a.963.963,0,1,0,0-1.927" transform="translate(1.266 9.511)" fill="#fcba27"/>
      <path id="Fill_17" data-name="Fill 17" d="M12.162.688A.979.979,0,0,0,11.222,0H.011C-.43,0,12.162.688,12.162.688" transform="translate(1.002 7.538)" fill="#fcba27"/>
      <path id="Fill_19" data-name="Fill 19" d="M0,0V16.763A11.741,11.741,0,0,0,11.847,28.4h1.975A11.742,11.742,0,0,0,25.668,16.763V0Z" transform="translate(11.876 3.191)" fill="#fcdd14"/>
      <g id="Group_23" data-name="Group 23" transform="translate(8.952 0)">
        <path id="Clip_22-2" data-name="Clip 22" d="M0,0H31.516V4.946H0Z" transform="translate(0 0)" fill="none"/>
        <g id="Group_23-2" data-name="Group 23" transform="translate(0 0)" clip-path="url(#clip-path-3)">
          <path id="Fill_21" data-name="Fill 21" d="M31.516,3.031A1.8,1.8,0,0,1,29.85,4.946H1.666A1.8,1.8,0,0,1,0,3.031V1.914A1.8,1.8,0,0,1,1.666,0H29.85a1.8,1.8,0,0,1,1.666,1.914Z" transform="translate(0 0)" fill="#fcba27"/>
        </g>
      </g>
      <g id="Group_26" data-name="Group 26" transform="translate(14.746 0)">
        <path id="Clip_25-2" data-name="Clip 25" d="M0,0H25.245V1.063H0Z" transform="translate(0 0)" fill="none"/>
        <g id="Group_26-2" data-name="Group 26" transform="translate(0 0)" clip-path="url(#clip-path-4)">
          <path id="Fill_24" data-name="Fill 24" d="M0,.266c0,.441,5.879.8,13.132.8A109.606,109.606,0,0,0,25.245.574,1.564,1.564,0,0,0,24.056,0H.75C.266.083,0,.173,0,.266" transform="translate(0 0)" fill="#e49024"/>
        </g>
      </g>
      <path id="Clip_28-2" data-name="Clip 28" d="M0,55.038H49.123V0H0Z" transform="translate(0 0)" fill="none"/>
      <g id="Mask_Group_29" data-name="Mask Group 29" transform="translate(0 0)" clip-path="url(#clip-path-5)">
        <path id="Fill_27" data-name="Fill 27" d="M0,3.35H6.66V0H0Z" transform="translate(21.38 31.108)" fill="#fcba27"/>
        <path id="Fill_29" data-name="Fill 29" d="M0,17.389H4.224V0H0Z" transform="translate(22.598 34.459)" fill="#fcdd14"/>
        <path id="Fill_30" data-name="Fill 30" d="M13.159,0H3.249L0,4.786H16.408Z" transform="translate(16.506 47.062)" fill="#fcba27"/>
        <path id="Fill_31" data-name="Fill 31" d="M7.4,0H4.955Q2.461,2.376,0,4.786H2.582Q5,2.4,7.4,0" transform="translate(21.382 47.062)" fill="#fff6c1"/>
        <path id="Fill_32" data-name="Fill 32" d="M6.01,0H4.853Q2.423,2.39,0,4.786H1.079Q3.525,2.374,6.01,0" transform="translate(19.089 47.062)" fill="#fff6c1"/>
        <path id="Fill_33" data-name="Fill 33" d="M0,3.35H23.881V0H0Z" transform="translate(12.77 51.688)" fill="#e49024"/>
        <path id="Fill_34" data-name="Fill 34" d="M0,3.35H2.112V0H0Z" transform="translate(12.77 51.688)" fill="#fff6c1"/>
        <path id="Stroke_35" data-name="Stroke 35" d="M.05,0V12.57" transform="translate(34.931 8.87)" fill="none" stroke="#fff6c1" stroke-linecap="round" stroke-miterlimit="10" stroke-width="1.944"/>
      </g>
    </g>
    <text id="_23_Victories_1_Lose" data-name="23 Victories/ 1 Lose" transform="translate(80.083 118.083)" fill="#fcbd11" font-size="12" font-family="SegoeUI, Segoe UI"><tspan x="-51.709" y="0">Today&apos;s Grand Prize</tspan></text>
  </g>
</svg>
